HIERARCHY
ROOT joint_Root
{
	OFFSET 0.0 0.0 0.0
	CHANNELS 6 Xposition Yposition Zposition Zrotation Xrotation Yrotation 
	JOINT Hips
	{
		OFFSET 4.5925 91.4895 -427.239
		CHANNELS 6 Xposition Yposition Zposition Zrotation Xrotation Yrotation 
		JOINT Spine
		{
			OFFSET 15.7357 0.0 0.0
			CHANNELS 6 Xposition Yposition Zposition Zrotation Xrotation Yrotation 
			JOINT Chest
			{
				OFFSET 8.98455 -0.406207 0.0
				CHANNELS 6 Xposition Yposition Zposition Zrotation Xrotation Yrotation 
				JOINT Neck
				{
					OFFSET 16.3773 0.0 0.0
					CHANNELS 6 Xposition Yposition Zposition Zrotation Xrotation Yrotation 
					JOINT Head
					{
						OFFSET 6.45672 0.0 0.0
						CHANNELS 6 Xposition Yposition Zposition Zrotation Xrotation Yrotation 
						End Site
						{
							OFFSET 0.0 0.0 0.0
						}
					}
				}
				JOINT Shoulder_L
				{
					OFFSET 12.9942 -0.242716 4.98039
					CHANNELS 6 Xposition Yposition Zposition Zrotation Xrotation Yrotation 
					JOINT UpperArm_L
					{
						OFFSET 5.34809 0.0 0.0
						CHANNELS 6 Xposition Yposition Zposition Zrotation Xrotation Yrotation 
						JOINT LowerArm_L
						{
							OFFSET 24.3286 1.87007e-05 0.0
							CHANNELS 6 Xposition Yposition Zposition Zrotation Xrotation Yrotation 
							JOINT Hand_L
							{
								OFFSET 22.2916 0.0 0.0
								CHANNELS 6 Xposition Yposition Zposition Zrotation Xrotation Yrotation 
								End Site
								{
									OFFSET 0.0 0.0 0.0
								}
							}
						}
					}
				}
				JOINT Shoulder_R
				{
					OFFSET 12.9945 -0.242716 -4.98039
					CHANNELS 6 Xposition Yposition Zposition Zrotation Xrotation Yrotation 
					JOINT UpperArm_R
					{
						OFFSET -5.34813 0.0 0.0
						CHANNELS 6 Xposition Yposition Zposition Zrotation Xrotation Yrotation 
						JOINT LowerArm_R
						{
							OFFSET -24.3289 0.000322201 0.0
							CHANNELS 6 Xposition Yposition Zposition Zrotation Xrotation Yrotation 
							JOINT Hand_R
							{
								OFFSET -22.2915 -0.000108084 0.0
								CHANNELS 6 Xposition Yposition Zposition Zrotation Xrotation Yrotation 
								End Site
								{
									OFFSET 0.0 0.0 0.0
								}
							}
						}
					}
				}
			}
		}
		JOINT UpperLeg_L
		{
			OFFSET -2.19248 -6.46944 0.0
			CHANNELS 6 Xposition Yposition Zposition Zrotation Xrotation Yrotation 
			JOINT LowerLeg_L
			{
				OFFSET 39.0811 0.0 -1.23785e-05
				CHANNELS 6 Xposition Yposition Zposition Zrotation Xrotation Yrotation 
				JOINT Foot_L
				{
					OFFSET 40.9854 0.0 -1.26872e-05
					CHANNELS 6 Xposition Yposition Zposition Zrotation Xrotation Yrotation 
					JOINT Toes_L
					{
						OFFSET 11.7543 0.0 0.0
						CHANNELS 6 Xposition Yposition Zposition Zrotation Xrotation Yrotation 
						End Site
						{
							OFFSET 0.0 0.0 0.0
						}
					}
				}
			}
		}
		JOINT UpperLeg_R
		{
			OFFSET -2.19251 6.46944 0.0
			CHANNELS 6 Xposition Yposition Zposition Zrotation Xrotation Yrotation 
			JOINT LowerLeg_R
			{
				OFFSET -39.0811 -0.00228153 -0.0401928
				CHANNELS 6 Xposition Yposition Zposition Zrotation Xrotation Yrotation 
				JOINT Foot_R
				{
					OFFSET -40.9854 0.0 0.0
					CHANNELS 6 Xposition Yposition Zposition Zrotation Xrotation Yrotation 
					JOINT Toes_R
					{
						OFFSET -11.7543 0.0 0.0
						CHANNELS 6 Xposition Yposition Zposition Zrotation Xrotation Yrotation 
						End Site
						{
							OFFSET 0.0 0.0 0.0
						}
					}
				}
			}
		}
	}
}
MOTION
Frames:	6
Frame Time:	0.0333333
0.000000 0.000000 0.000000 0.000000 0.000000 -0.000000 5.293260 90.559100 470.869000 -90.534000 1.681520 175.563000 15.735700 0.000005 -0.000001 113.745000 82.402700 -115.040000 8.984550 -0.406207 -0.000000 6.240430 6.118570 -2.921290 16.377300 -0.000001 -0.000001 -3.321860 -2.250110 -0.212490 6.456720 -0.000001 -0.000000 -9.985970 -6.178630 1.573520 12.994200 -0.242716 4.980390 -87.477400 -5.576070 -65.610600 5.348090 -0.000007 -0.000001 -65.875200 31.724500 15.930900 24.328600 0.000019 0.000005 16.174000 -2.708900 -99.255500 22.291600 -0.000001 0.000005 2.689870 5.402150 -3.007580 12.994500 -0.242716 -4.980390 89.164300 3.910520 -77.926500 -5.348130 -0.000001 -0.000004 -56.401500 39.581000 -22.588100 -24.328900 0.000322 -0.000009 -5.584890 1.180220 -101.893000 -22.291500 -0.000108 -0.000004 16.039200 5.492260 -6.225420 -2.192480 -6.469440 -0.000000 179.878000 -2.906250 -28.332600 39.081100 -0.000007 -0.000012 -0.016414 0.021589 37.249200 40.985400 -0.000006 -0.000013 0.043376 3.514930 -69.510700 11.754300 -0.000000 0.000003 -0.008860 -0.094924 -20.443100 -2.192510 6.469440 -0.000001 176.745000 9.991490 -177.186000 -39.081100 -0.002282 -0.040193 0.099411 -0.108771 41.471600 -40.985400 0.000008 0.000006 1.958480 2.301810 -45.204100 -11.754300 -0.000006 -0.000006 -0.039594 -0.258488 -27.190100
0.000000 0.000000 0.000000 0.000000 0.000000 -0.000000 5.068710 88.551800 465.454000 -90.600800 0.981957 176.453000 15.735700 0.000005 -0.000001 111.534000 82.401000 -112.967000 8.984550 -0.406207 -0.000000 6.466360 5.578180 -3.180380 16.377300 -0.000001 -0.000001 -2.562730 -2.077900 -1.027070 6.456720 -0.000001 -0.000000 -9.969320 -6.143560 0.538262 12.994200 -0.242716 4.980390 -87.558600 -5.258850 -65.052300 5.348090 -0.000007 -0.000001 -64.710600 29.118400 14.768400 24.328600 0.000019 0.000005 16.418900 -3.033670 -100.181000 22.291600 -0.000001 0.000005 2.972130 5.400610 -2.956660 12.994500 -0.242716 -4.980390 88.980300 4.581650 -77.439300 -5.348130 -0.000001 -0.000004 -58.439400 39.964300 -17.038500 -24.328900 0.000322 -0.000009 -5.230090 0.873163 -99.448000 -22.291500 -0.000108 -0.000004 16.286700 5.495280 -6.344220 -2.192480 -6.469440 -0.000000 178.515000 -3.507070 -28.523900 39.081100 -0.000007 -0.000012 -0.138538 0.155873 41.630800 40.985400 -0.000006 -0.000013 2.536030 3.024790 -67.184800 11.754300 -0.000000 0.000003 -0.000000 -0.000001 -16.577500 -2.192510 6.469440 -0.000001 177.227000 6.929360 -177.859000 -39.081100 -0.002282 -0.040193 0.085251 -0.071539 48.897700 -40.985400 0.000008 0.000006 0.395263 0.419434 -44.240400 -11.754300 -0.000006 -0.000006 -0.026194 -0.199458 -24.736000
0.000000 0.000000 0.000000 0.000000 0.000000 -0.000000 4.522780 85.862100 460.115000 -91.463200 1.133590 176.999000 15.735700 0.000005 -0.000001 108.077000 82.488500 -109.919000 8.984550 -0.406207 -0.000000 6.610140 4.665790 -3.951270 16.377300 -0.000001 -0.000001 -2.306180 -2.013330 -1.032420 6.456720 -0.000001 -0.000000 -9.736550 -5.406110 -0.723655 12.994200 -0.242716 4.980390 -88.492300 -3.203530 -64.778800 5.348090 -0.000007 -0.000001 -62.179500 25.610400 13.718500 24.328600 0.000019 0.000005 17.261400 -3.762410 -101.924000 22.291600 -0.000001 0.000005 3.672460 5.418940 -3.560600 12.994500 -0.242716 -4.980390 88.652900 5.779050 -76.856100 -5.348130 -0.000001 -0.000004 -59.296400 40.426500 -11.970800 -24.328900 0.000322 -0.000009 -4.598260 0.497379 -96.154700 -22.291500 -0.000108 -0.000004 16.466800 5.524410 -7.553410 -2.192480 -6.469440 -0.000000 177.465000 1.104840 -28.967500 39.081100 -0.000007 -0.000012 -0.427389 0.339756 51.517800 40.985400 -0.000006 -0.000013 1.179250 -2.628880 -75.933400 11.754300 -0.000000 0.000003 -0.000124 -0.001233 -16.624600 -2.192510 6.469440 -0.000001 175.949000 5.263640 178.920000 -39.081100 -0.002282 -0.040193 0.090790 -0.051188 59.697000 -40.985400 0.000008 0.000006 0.755693 0.553889 -45.780900 -11.754300 -0.000006 -0.000006 -0.024582 -0.191462 -24.405300
0.000000 0.000000 0.000000 0.000000 0.000000 -0.000000 3.968130 83.552900 455.474000 -93.265600 0.987299 177.547000 15.735700 0.000005 -0.000001 101.323000 82.184900 -103.803000 8.984550 -0.406207 -0.000000 7.639520 3.059340 -5.159940 16.377300 -0.000001 -0.000001 -4.175920 -2.089870 -0.461407 6.456720 -0.000001 -0.000000 -9.626350 -4.113110 -2.309090 12.994200 -0.242716 4.980390 -90.834200 1.872670 -65.941900 5.348090 -0.000007 -0.000001 -57.348000 20.548400 11.889900 24.328600 0.000019 0.000005 16.304100 -4.379210 -104.632000 22.291600 -0.000001 0.000005 4.859000 5.415130 -3.438410 12.994500 -0.242716 -4.980390 88.067200 7.961280 -76.307500 -5.348130 -0.000001 -0.000004 -59.733400 39.084300 -6.632480 -24.328900 0.000322 -0.000009 -2.906450 0.065217 -91.248700 -22.291500 -0.000108 -0.000004 17.368700 5.590550 -10.748100 -2.192480 -6.469440 -0.000000 174.973000 3.402480 -27.737000 39.081100 -0.000007 -0.000012 -0.584291 0.372841 57.459100 40.985400 -0.000006 -0.000013 0.574863 -4.925850 -82.526000 11.754300 -0.000000 0.000003 -0.000459 -0.003706 -16.713500 -2.192510 6.469440 -0.000001 173.867000 4.432060 172.535000 -39.081100 -0.002282 -0.040193 0.095895 -0.029688 72.262100 -40.985400 0.000008 0.000006 1.812900 -0.623241 -45.913400 -11.754300 -0.000006 -0.000006 -0.024989 -0.193503 -24.489700
0.000000 0.000000 0.000000 0.000000 0.000000 -0.000000 3.745620 82.241200 451.181000 -94.090000 1.586090 178.237000 15.735700 0.000005 -0.000001 98.051300 81.624000 -100.985000 8.984550 -0.406207 -0.000000 8.892250 2.305350 -6.041520 16.377300 -0.000001 -0.000001 -4.866920 -2.158130 -0.169461 6.456720 -0.000001 -0.000000 -10.774100 -3.579280 -2.183610 12.994200 -0.242716 4.980390 -91.777500 4.122370 -66.650300 5.348090 -0.000007 -0.000001 -57.286600 16.552600 4.849880 24.328600 0.000019 0.000005 14.792900 -3.646920 -103.543000 22.291600 -0.000001 0.000005 4.730480 5.394990 -2.774910 12.994500 -0.242716 -4.980390 87.859200 8.683130 -76.092900 -5.348130 -0.000001 -0.000004 -63.869900 35.690600 0.612637 -24.328900 0.000322 -0.000009 -2.240690 -0.219510 -84.442800 -22.291500 -0.000108 -0.000004 20.911400 5.612020 -12.099000 -2.192480 -6.469440 -0.000000 173.801000 0.382432 -24.538400 39.081100 -0.000007 -0.000012 -0.564930 0.331399 59.604600 40.985400 -0.000006 -0.000013 1.582780 -3.468190 -87.286400 11.754300 -0.000000 0.000003 -0.000566 -0.004416 -16.738200 -2.192510 6.469440 -0.000001 173.543000 2.594000 164.848000 -39.081100 -0.002282 -0.040193 0.036150 -0.004173 82.895900 -40.985400 0.000008 0.000006 3.709170 -1.427940 -47.565100 -11.754300 -0.000006 -0.000006 -0.024669 -0.191898 -24.423300
0.000000 0.000000 0.000000 0.000000 0.000000 -0.000000 3.905920 82.100000 447.038000 -93.122700 0.651553 177.317000 15.735700 0.000005 -0.000001 92.459400 81.813000 -94.847500 8.984550 -0.406207 -0.000000 8.612170 0.681510 -4.823330 16.377300 -0.000001 -0.000001 -5.275480 -2.411850 -0.334491 6.456720 -0.000001 -0.000000 -10.938000 -2.687820 -2.631490 12.994200 -0.242716 4.980390 -91.684300 4.136550 -67.821700 5.348090 -0.000007 -0.000001 -62.750700 14.150700 -2.319930 24.328600 0.000019 0.000005 16.459200 -4.104030 -103.616000 22.291600 -0.000001 0.000005 5.076590 5.390020 -2.615590 12.994500 -0.242716 -4.980390 87.799600 8.069990 -74.692100 -5.348130 -0.000001 -0.000004 -66.530100 33.229500 7.677440 -24.328900 0.000322 -0.000009 -10.135700 -1.143600 -83.611100 -22.291500 -0.000108 -0.000004 19.982200 5.603500 -11.553600 -2.192480 -6.469440 -0.000000 175.262000 -1.463420 -21.423600 39.081100 -0.000007 -0.000012 -0.498615 0.306919 58.387000 40.985400 -0.000006 -0.000013 2.701090 -1.050090 -90.075700 11.754300 -0.000000 0.000003 -0.000641 -0.004898 -16.754700 -2.192510 6.469440 -0.000001 175.492000 2.543990 156.229000 -39.081100 -0.002282 -0.040193 0.002934 -0.000078 88.973900 -40.985400 0.000008 0.000006 4.488590 -1.506030 -50.378900 -11.754300 -0.000006 -0.000006 -0.022593 -0.181248 -23.983400
